HIERARCHY
ROOT root
{
	OFFSET	0	13.1	24.9
	CHANNELS 6  Xposition Yposition Zposition Xrotation Yrotation Zrotation
	JOINT spine_1
	{
		OFFSET	0	9.99999	0
		CHANNELS 3  Xrotation Yrotation Zrotation
		JOINT spine_2
		{
			OFFSET	0	112	-10
			CHANNELS 3  Xrotation Yrotation Zrotation
			JOINT spine_3
			{
				OFFSET	0	206.5	19.3
				CHANNELS 3  Xrotation Yrotation Zrotation
				JOINT spine_4
				{
					OFFSET	0	110.4	14.6
					CHANNELS 3  Xrotation Yrotation Zrotation
					JOINT neck_1
					{
						OFFSET	0	71.8	-50.3
						CHANNELS 3  Xrotation Yrotation Zrotation
						JOINT neck_2
						{
							OFFSET	0	86.2	-25.8
							CHANNELS 3  Xrotation Yrotation Zrotation
							JOINT head_ee
							{
								OFFSET	0	179.8	-8.7
								CHANNELS 3  Xrotation Yrotation Zrotation
								End Site
								{
									OFFSET	1	0	0
								}
							}
						}
					}
					JOINT left_clavicle
					{
						OFFSET	-43.2	22.4	-70.8
						CHANNELS 3  Xrotation Yrotation Zrotation
						JOINT left_shoulder
						{
							OFFSET	-93.9	-5.79999	48.7
							CHANNELS 3  Xrotation Yrotation Zrotation
							JOINT left_elbow
							{
								OFFSET	-291.4	-30.8	15.2
								CHANNELS 3  Xrotation Yrotation Zrotation
								JOINT left_lowarm_twist
								{
									OFFSET	-110.7	-3.89999	13.6
									CHANNELS 3  Xrotation Yrotation Zrotation
									JOINT left_hand
									{
										OFFSET	-110.7	-3.89999	13.6
										CHANNELS 3  Xrotation Yrotation Zrotation
										JOINT left_ee
										{
											OFFSET	-80.8	-5.10001	12.1
											CHANNELS 3  Xrotation Yrotation Zrotation
											End Site
											{
												OFFSET	1	0	0
											}
										}
									}
								}
							}
						}
					}
					JOINT right_clavicle
					{
						OFFSET	43.2	22.4	-70.8
						CHANNELS 3  Xrotation Yrotation Zrotation
						JOINT right_shoulder
						{
							OFFSET	93.9	-5.79999	48.7
							CHANNELS 3  Xrotation Yrotation Zrotation
							JOINT right_elbow
							{
								OFFSET	291.4	-30.8	15.2
								CHANNELS 3  Xrotation Yrotation Zrotation
								JOINT right_lowarm_twist
								{
									OFFSET	110.7	-3.89999	13.6
									CHANNELS 3  Xrotation Yrotation Zrotation
									JOINT right_hand
									{
										OFFSET	110.7	-3.89999	13.6
										CHANNELS 3  Xrotation Yrotation Zrotation
										JOINT right_ee
										{
											OFFSET	80.8	-5.10001	12.1
											CHANNELS 3  Xrotation Yrotation Zrotation
											End Site
											{
												OFFSET	1	0	0
											}
										}
									}
								}
							}
						}
					}
				}
			}
		}
	}
	JOINT left_hip
	{
		OFFSET	-82.8	-127.5	0.300001
		CHANNELS 3  Xrotation Yrotation Zrotation
		JOINT left_knee
		{
			OFFSET	-28.2	-396.7	2.2
			CHANNELS 3  Xrotation Yrotation Zrotation
			JOINT left_ankle
			{
				OFFSET	-11.7	-411.3	35.4
				CHANNELS 3  Xrotation Yrotation Zrotation
				JOINT left_toes
				{
					OFFSET	0	-60	-88.6
					CHANNELS 3  Xrotation Yrotation Zrotation
					JOINT left_foot_ee
					{
						OFFSET	-22.5	-16.5	-42.2
						CHANNELS 3  Xrotation Yrotation Zrotation
						End Site
						{
							OFFSET	1	0	0
						}
					}
				}
			}
		}
	}
	JOINT right_hip
	{
		OFFSET	82.8	-127.5	0.300001
		CHANNELS 3  Xrotation Yrotation Zrotation
		JOINT right_knee
		{
			OFFSET	28.2	-396.7	2.2
			CHANNELS 3  Xrotation Yrotation Zrotation
			JOINT right_ankle
			{
				OFFSET	11.7	-411.3	35.4
				CHANNELS 3  Xrotation Yrotation Zrotation
				JOINT right_toes
				{
					OFFSET	0	-60	-88.6
					CHANNELS 3  Xrotation Yrotation Zrotation
					JOINT right_foot_ee
					{
						OFFSET	22.5	-16.5	-42.2
						CHANNELS 3  Xrotation Yrotation Zrotation
						End Site
						{
							OFFSET	1	0	0
						}
					}
				}
			}
		}
	}
}
MOTION
Frames: 5
Frame Time: 0.02
3177.02 653.055 -1669.29 -4.97369164387 10.4120394613 -1.44384054923 -0.915893 0.753516 3.8112 -0.907959 0.509657 3.85134 -0.867099 -0.369918 3.86724 -0.887881 0.24501 3.87714 3.06477 -4.80717 -4.86491 3.12663 -4.21293 -5.76307 -0.0 0.0 -0.0 1.09406 23.9878 4.25216 -10.177 -22.4049 69.0783 0.516388 -14.3489 0.0650017 -2.84083 -0.108716 0.346415 -0.833038 25.3462 5.32738 -0.0 0.0 -0.0 10.0994 23.8534 -19.3031 9.16035 29.6142 -55.6298 1.90422 43.3241 -0.756381 -21.4746 1.22912 -2.43927 1.47662 -19.1643 -16.8479 0.0 0.0 0.0 37.2231 4.34902 -9.39097 -17.3445 0.317798 2.63255 11.4139 28.4252 -1.72472 -24.5742 0.0 0.0 -0.0 0.0 -0.0 6.026 9.04046 11.9338 -38.6329 0.382092 -5.80595 17.5155 -13.3481 2.43145 10.2341 -0.0 -0.0 0.0 0.0 0.0 
3155.50140741 653.433 -1695.08905373 -5.0269226572 11.6843041542 -1.72600153108 -0.44871 0.752226 3.76827 -0.440957 0.511096 3.80841 -0.40155 -0.327697 3.82853 -0.42189 0.280603 3.83226 4.36801 -4.66213 -4.51355 4.42108 -4.11407 -5.37893 -0.0 0.0 -0.0 1.22134 23.9412 4.42123 -9.8579 -21.3093 67.1524 0.542205 -15.0345 0.0715494 -5.91697 -0.245674 0.715037 -0.987984 24.4195 4.0648 -0.0 0.0 -0.0 10.1271 22.282 -19.5071 7.16995 29.6274 -56.9264 1.65219 39.2954 -0.589906 -21.6118 1.23983 -2.4532 1.59416 -22.3283 -18.5398 0.0 0.0 0.0 37.5559 4.41226 -8.07092 -21.7666 0.270465 3.30925 15.0845 28.8314 -2.25761 -23.2273 0.0 0.0 -0.0 0.0 -0.0 5.64894 11.6246 11.4228 -41.7604 0.582546 -6.24294 15.4698 -18.8155 2.1967 11.5341 -0.0 -0.0 0.0 0.0 0.0 
3155.29507444 653.433 -1694.91554603 -5.03542955622 12.1423105303 -1.68479254424 -0.44871 0.752226 3.76827 -0.440957 0.511096 3.80841 -0.40155 -0.327697 3.82853 -0.42189 0.280603 3.83226 4.36801 -4.66213 -4.51355 4.42108 -4.11407 -5.37893 -0.0 0.0 -0.0 1.22134 23.9412 4.42123 -9.8579 -21.3093 67.1524 0.542205 -15.0345 0.0715494 -5.91697 -0.245674 0.715037 -0.987984 24.4195 4.0648 -0.0 0.0 -0.0 10.1271 22.282 -19.5071 7.16995 29.6274 -56.9264 1.65219 39.2954 -0.589906 -21.6118 1.23983 -2.4532 1.59416 -22.3283 -18.5398 0.0 0.0 0.0 37.5559 4.41226 -8.07092 -21.7666 0.270465 3.30925 15.0845 28.8314 -2.25761 -23.2273 0.0 0.0 -0.0 0.0 -0.0 5.64894 11.6246 11.4228 -41.7604 0.582546 -6.24294 15.4698 -18.8155 2.1967 11.5341 -0.0 -0.0 0.0 0.0 0.0 
3155.14880527 653.433 -1694.7908204 -5.04171036747 12.4688817262 -1.65532269496 -0.44871 0.752226 3.76827 -0.440957 0.511096 3.80841 -0.40155 -0.327697 3.82853 -0.42189 0.280603 3.83226 4.36801 -4.66213 -4.51355 4.42108 -4.11407 -5.37893 -0.0 0.0 -0.0 1.22134 23.9412 4.42123 -9.8579 -21.3093 67.1524 0.542205 -15.0345 0.0715494 -5.91697 -0.245674 0.715037 -0.987984 24.4195 4.0648 -0.0 0.0 -0.0 10.1271 22.282 -19.5071 7.16995 29.6274 -56.9264 1.65219 39.2954 -0.589906 -21.6118 1.23983 -2.4532 1.59416 -22.3283 -18.5398 0.0 0.0 0.0 37.5559 4.41226 -8.07092 -21.7666 0.270465 3.30925 15.0845 28.8314 -2.25761 -23.2273 0.0 0.0 -0.0 0.0 -0.0 5.64894 11.6246 11.4228 -41.7604 0.582546 -6.24294 15.4698 -18.8155 2.1967 11.5341 -0.0 -0.0 0.0 0.0 0.0 
3095.16146895 663.051 -1755.46556918 -4.20650411523 12.9670900148 -1.06884966287 -0.566095 0.730927 3.40005 -0.559811 0.513223 3.43961 -0.524266 -0.252901 3.46845 -0.540928 0.297712 3.46489 2.60186 -4.05663 -3.16808 2.63487 -4.40068 -3.81904 -0.0 0.0 -0.0 2.60127 24.0333 6.30069 -3.61104 -20.8628 64.4636 0.627081 -17.2569 0.0951565 -8.15801 -0.357834 0.978753 -2.08713 20.9866 -3.85772 -0.0 0.0 -0.0 9.94158 22.8539 -19.0413 0.201999 27.1692 -56.6895 1.31765 33.132 -0.391974 -21.6171 1.24024 -2.45374 2.18468 -29.1813 -23.8615 0.0 0.0 0.0 35.3491 4.10999 -5.58237 -26.5367 0.161062 4.03288 21.5175 27.9207 -3.12236 -23.7399 0.0 0.0 -0.0 0.0 -0.0 9.61185 14.9747 10.3207 -54.2534 1.61243 -7.86267 2.13695 -18.8935 0.316434 6.86203 -0.0 -0.0 0.0 0.0 0.0 
